<svg width="170" height="48" viewBox="0 0 170 48" fill="none" xmlns="http://www.w3.org/2000/svg">
<rect width="170" height="48" rx="5" fill="#065E7C"/>
<path fill-rule="evenodd" clip-rule="evenodd" d="M44 13.5C44.3249 13.5 44.6128 13.7092 44.7133 14.0182L46.9824 21H54.5C54.8287 21 55.1191 21.214 55.2164 21.528C55.3137 21.8419 55.1952 22.1827 54.9241 22.3685L48.8295 26.5477L51.1794 33.5102C51.2837 33.8193 51.1762 34.1605 50.9134 34.354C50.6506 34.5474 50.2929 34.5488 50.0287 34.3573L44 29.9887L37.9713 34.3573C37.7071 34.5488 37.3494 34.5474 37.0866 34.354C36.8238 34.1605 36.7163 33.8193 36.8206 33.5102L39.1705 26.5477L33.0758 22.3685C32.8048 22.1827 32.6863 21.8419 32.7836 21.528C32.8809 21.214 33.1713 21 33.5 21H41.0176L43.2867 14.0182C43.3871 13.7092 43.6751 13.5 44 13.5ZM44 16.6765L42.2758 21.9818C42.1753 22.2908 41.8874 22.5 41.5625 22.5H35.9199L40.4866 25.6315C40.7634 25.8213 40.8804 26.1718 40.7731 26.4898L38.9929 31.7646L43.5599 28.4552C43.8225 28.2649 44.1775 28.2649 44.4401 28.4552L49.0071 31.7646L47.2269 26.4898C47.1196 26.1718 47.2366 25.8213 47.5133 25.6315L52.08 22.5H46.4375C46.1126 22.5 45.8246 22.2908 45.7242 21.9818L44 16.6765Z" fill="white"/>
<path d="M67.3604 19.0469V29H65.3096V19.0469H67.3604ZM71.3252 23.2988V24.8984H66.7998V23.2988H71.3252ZM71.8037 19.0469V20.6533H66.7998V19.0469H71.8037ZM75.7822 20.749L73.0752 29H70.8945L74.5928 19.0469H75.9805L75.7822 20.749ZM78.0312 29L75.3174 20.749L75.0986 19.0469H76.5L80.2188 29H78.0312ZM77.9082 25.2949V26.9014H72.6514V25.2949H77.9082ZM84.1699 26.9219L86.5146 19.0469H88.7979L85.332 29H83.8281L84.1699 26.9219ZM82.0098 19.0469L84.3477 26.9219L84.7031 29H83.1855L79.7402 19.0469H82.0098ZM97.8076 23.791V24.2627C97.8076 25.0192 97.7051 25.6982 97.5 26.2998C97.2949 26.9014 97.0055 27.4141 96.6318 27.8379C96.2581 28.2572 95.8115 28.5785 95.292 28.8018C94.777 29.0251 94.2051 29.1367 93.5762 29.1367C92.9518 29.1367 92.3799 29.0251 91.8604 28.8018C91.3454 28.5785 90.8988 28.2572 90.5205 27.8379C90.1423 27.4141 89.8483 26.9014 89.6387 26.2998C89.4336 25.6982 89.3311 25.0192 89.3311 24.2627V23.791C89.3311 23.0299 89.4336 22.3509 89.6387 21.7539C89.8438 21.1523 90.1331 20.6396 90.5068 20.2158C90.8851 19.792 91.3317 19.4684 91.8467 19.2451C92.3662 19.0218 92.9382 18.9102 93.5625 18.9102C94.1914 18.9102 94.7633 19.0218 95.2783 19.2451C95.7979 19.4684 96.2445 19.792 96.6182 20.2158C96.9964 20.6396 97.2881 21.1523 97.4932 21.7539C97.7028 22.3509 97.8076 23.0299 97.8076 23.791ZM95.7363 24.2627V23.7773C95.7363 23.2487 95.6885 22.7839 95.5928 22.3828C95.4971 21.9818 95.3558 21.6445 95.1689 21.3711C94.9821 21.0977 94.7542 20.8926 94.4854 20.7559C94.2165 20.6146 93.9089 20.5439 93.5625 20.5439C93.2161 20.5439 92.9085 20.6146 92.6396 20.7559C92.3753 20.8926 92.1497 21.0977 91.9629 21.3711C91.7806 21.6445 91.6416 21.9818 91.5459 22.3828C91.4502 22.7839 91.4023 23.2487 91.4023 23.7773V24.2627C91.4023 24.7868 91.4502 25.2516 91.5459 25.6572C91.6416 26.0583 91.7829 26.3978 91.9697 26.6758C92.1566 26.9492 92.3844 27.1566 92.6533 27.2979C92.9222 27.4391 93.2298 27.5098 93.5762 27.5098C93.9225 27.5098 94.2301 27.4391 94.499 27.2979C94.7679 27.1566 94.9935 26.9492 95.1758 26.6758C95.3581 26.3978 95.4971 26.0583 95.5928 25.6572C95.6885 25.2516 95.7363 24.7868 95.7363 24.2627ZM99.2842 19.0469H102.996C103.757 19.0469 104.411 19.1608 104.958 19.3887C105.509 19.6165 105.933 19.9538 106.229 20.4004C106.526 20.847 106.674 21.3962 106.674 22.0479C106.674 22.5811 106.583 23.0391 106.4 23.4219C106.223 23.8001 105.97 24.1169 105.642 24.3721C105.318 24.6227 104.938 24.8232 104.5 24.9736L103.851 25.3154H100.624L100.61 23.7158H103.01C103.37 23.7158 103.668 23.652 103.905 23.5244C104.142 23.3968 104.32 23.2191 104.438 22.9912C104.562 22.7633 104.623 22.499 104.623 22.1982C104.623 21.8792 104.564 21.6035 104.445 21.3711C104.327 21.1387 104.147 20.9609 103.905 20.8379C103.664 20.7148 103.361 20.6533 102.996 20.6533H101.335V29H99.2842V19.0469ZM104.849 29L102.579 24.5635L104.746 24.5498L107.043 28.9043V29H104.849ZM110.434 19.0469V29H108.39V19.0469H110.434ZM116.6 19.0469V29H114.556V19.0469H116.6ZM119.662 19.0469V20.6533H111.541V19.0469H119.662ZM124.14 20.749L121.433 29H119.252L122.95 19.0469H124.338L124.14 20.749ZM126.389 29L123.675 20.749L123.456 19.0469H124.857L128.576 29H126.389ZM126.266 25.2949V26.9014H121.009V25.2949H126.266ZM129.499 19.0469H133.211C133.972 19.0469 134.626 19.1608 135.173 19.3887C135.724 19.6165 136.148 19.9538 136.444 20.4004C136.741 20.847 136.889 21.3962 136.889 22.0479C136.889 22.5811 136.798 23.0391 136.615 23.4219C136.438 23.8001 136.185 24.1169 135.856 24.3721C135.533 24.6227 135.152 24.8232 134.715 24.9736L134.065 25.3154H130.839L130.825 23.7158H133.225C133.585 23.7158 133.883 23.652 134.12 23.5244C134.357 23.3968 134.535 23.2191 134.653 22.9912C134.776 22.7633 134.838 22.499 134.838 22.1982C134.838 21.8792 134.779 21.6035 134.66 21.3711C134.542 21.1387 134.362 20.9609 134.12 20.8379C133.879 20.7148 133.576 20.6533 133.211 20.6533H131.55V29H129.499V19.0469ZM135.063 29L132.794 24.5635L134.961 24.5498L137.258 28.9043V29H135.063Z" fill="white"/>
</svg>
